<?xml version="1.0" encoding="UTF-8"?>
<svg id="_Слой_1" data-name="Слой 1" xmlns="http://www.w3.org/2000/svg" viewBox="0 0 563.74 563.74">
  <defs>
    <style>
      .cls-1 {
        fill: #121e2f;
      }

      .cls-1, .cls-2 {
        stroke-width: 0px;
      }

      .cls-2 {
        fill: #fff;
      }
    </style>
  </defs>
  <circle class="cls-1" cx="281.87" cy="281.87" r="281.87"/>
  <path class="cls-2" d="m314.52,227.67H126.81c-16.5,0-30,13.5-30,30v123.51c0,16.5,13.5,30,30,30h187.71c16.5,0,30-13.5,30-30v-123.51c0-16.5-13.5-30-30-30Zm-93.85,132.03c-22.24,0-40.28-18.03-40.28-40.28s18.03-40.28,40.28-40.28,40.28,18.03,40.28,40.28-18.03,40.28-40.28,40.28Z"/>
  <path class="cls-2" d="m168.35,123.15c-28.86,0-52.26,23.4-52.26,52.26s23.4,52.26,52.26,52.26,52.26-23.4,52.26-52.26-23.4-52.26-52.26-52.26Zm0,74.65c-12.37,0-22.4-10.03-22.4-22.4s10.03-22.4,22.4-22.4,22.4,10.03,22.4,22.4-10.03,22.4-22.4,22.4Z"/>
  <path class="cls-2" d="m267.42,134.15c-25.82,0-46.76,20.93-46.76,46.76s20.93,46.76,46.76,46.76,46.76-20.93,46.76-46.76-20.93-46.76-46.76-46.76Zm0,66.8c-11.07,0-20.04-8.97-20.04-20.04s8.97-20.04,20.04-20.04,20.04,8.97,20.04,20.04-8.97,20.04-20.04,20.04Z"/>
  <path class="cls-2" d="m466.92,255.4c0-14.57-15.77-23.67-28.38-16.39l-54.26,31.33-4.9,2.83c-8.62,4.98-13.94,14.18-13.94,24.14v41.49c0,9.96,5.31,19.16,13.94,24.14l4.9,2.83,56.5,32.62c11.62,6.71,26.14-1.68,26.14-15.09v-127.89Z"/>
</svg>